<?xml version="1.0" encoding="UTF-8" standalone="no"?>
<!-- Generator: Adobe Illustrator 18.0.0, SVG Export Plug-In . SVG Version: 6.00 Build 0)  -->

<svg
   xmlns:dc="http://purl.org/dc/elements/1.1/"
   xmlns:cc="http://creativecommons.org/ns#"
   xmlns:rdf="http://www.w3.org/1999/02/22-rdf-syntax-ns#"
   xmlns:svg="http://www.w3.org/2000/svg"
   xmlns="http://www.w3.org/2000/svg"
   xmlns:sodipodi="http://sodipodi.sourceforge.net/DTD/sodipodi-0.dtd"
   xmlns:inkscape="http://www.inkscape.org/namespaces/inkscape"
   version="1.1"
   id="Capa_1"
   x="0px"
   y="0px"
   viewBox="0 0 60 60"
   style="enable-background:new 0 0 60 60;"
   xml:space="preserve"
   sodipodi:docname="object_attachement.svg"
   inkscape:version="0.92.5 (2060ec1f9f, 2020-04-08)"
   inkscape:export-filename="/home/john/WWW/dolibarr/htdocs/custom/attachments/img/attachments.png"
   inkscape:export-xdpi="51.200001"
   inkscape:export-ydpi="51.200001"><metadata
   id="metadata49"><rdf:RDF><cc:Work
       rdf:about=""><dc:format>image/svg+xml</dc:format><dc:type
         rdf:resource="http://purl.org/dc/dcmitype/StillImage" /><dc:title></dc:title></cc:Work></rdf:RDF></metadata><defs
   id="defs47">
	
	
	
	
	

	
	
	
	
</defs><sodipodi:namedview
   pagecolor="#505050"
   bordercolor="#ffffff"
   borderopacity="1"
   objecttolerance="10"
   gridtolerance="10"
   guidetolerance="10"
   inkscape:pageopacity="0"
   inkscape:pageshadow="2"
   inkscape:window-width="1920"
   inkscape:window-height="1011"
   id="namedview45"
   showgrid="false"
   inkscape:zoom="5.5625733"
   inkscape:cx="32.496526"
   inkscape:cy="48.921455"
   inkscape:window-x="1920"
   inkscape:window-y="0"
   inkscape:window-maximized="1"
   inkscape:current-layer="Capa_1" />

<g
   id="g14">
</g>
<g
   id="g16">
</g>
<g
   id="g18">
</g>
<g
   id="g20">
</g>
<g
   id="g22">
</g>
<g
   id="g24">
</g>
<g
   id="g26">
</g>
<g
   id="g28">
</g>
<g
   id="g30">
</g>
<g
   id="g32">
</g>
<g
   id="g34">
</g>
<g
   id="g36">
</g>
<g
   id="g38">
</g>
<g
   id="g40">
</g>
<g
   id="g42">
</g>
<path
   style="stroke-width:0.13847363;fill:#00384e;fill-opacity:1"
   d="M 0.84570312 8.4140625 L 0.84570312 12.568359 L 28.541016 33.339844 L 56.236328 12.568359 L 56.236328 8.4140625 L 0.84570312 8.4140625 z M 0.84570312 17.761719 L 0.84570312 38.078125 L 15.357422 28.646484 L 0.84570312 17.761719 z M 56.236328 17.761719 L 41.722656 28.646484 L 45.130859 30.861328 L 45.501953 30.488281 L 45.513672 30.478516 C 47.600602 28.426408 50.046838 27.069537 52.712891 26.939453 C 53.924317 26.880349 55.111621 27.110458 56.236328 27.550781 L 56.236328 17.761719 z M 18.896484 31.300781 L 0.84570312 43.033203 L 0.84570312 47.1875 L 34.544922 47.1875 C 34.699784 46.949526 34.85595 46.713022 35.027344 46.484375 L 32.259766 43.783203 L 42.134766 33.867188 L 38.185547 31.300781 L 28.541016 38.533203 L 18.896484 31.300781 z "
   id="XMLID_869_" /><g
   id="g875"
   transform="matrix(0.13847363,0,0,0.13847363,0.84620991,0.10637402)">
</g><g
   id="g877"
   transform="matrix(0.13847363,0,0,0.13847363,0.84620991,0.10637402)">
</g><g
   id="g879"
   transform="matrix(0.13847363,0,0,0.13847363,0.84620991,0.10637402)">
</g><g
   id="g881"
   transform="matrix(0.13847363,0,0,0.13847363,0.84620991,0.10637402)">
</g><g
   id="g883"
   transform="matrix(0.13847363,0,0,0.13847363,0.84620991,0.10637402)">
</g><g
   id="g885"
   transform="matrix(0.13847363,0,0,0.13847363,0.84620991,0.10637402)">
</g><g
   id="g887"
   transform="matrix(0.13847363,0,0,0.13847363,0.84620991,0.10637402)">
</g><g
   id="g889"
   transform="matrix(0.13847363,0,0,0.13847363,0.84620991,0.10637402)">
</g><g
   id="g891"
   transform="matrix(0.13847363,0,0,0.13847363,0.84620991,0.10637402)">
</g><g
   id="g893"
   transform="matrix(0.13847363,0,0,0.13847363,0.84620991,0.10637402)">
</g><g
   id="g895"
   transform="matrix(0.13847363,0,0,0.13847363,0.84620991,0.10637402)">
</g><g
   id="g897"
   transform="matrix(0.13847363,0,0,0.13847363,0.84620991,0.10637402)">
</g><g
   id="g899"
   transform="matrix(0.13847363,0,0,0.13847363,0.84620991,0.10637402)">
</g><g
   id="g901"
   transform="matrix(0.13847363,0,0,0.13847363,0.84620991,0.10637402)">
</g><g
   id="g903"
   transform="matrix(0.13847363,0,0,0.13847363,0.84620991,0.10637402)">
</g><path
   d="m 45.236535,54.508885 c 4.584194,-4.558744 8.170077,-8.202864 12.158691,-12.114777 1.316821,-1.375327 2.150848,-2.721445 2.501994,-4.038266 0.614553,-2.484976 -0.330324,-4.636848 -1.975243,-6.320765 -1.580208,-1.580185 -3.270131,-2.326387 -5.06979,-2.238584 -1.79966,0.08781 -3.57734,0.994951 -5.333131,2.721445 l -11.193059,11.236881 1.843572,1.799638 11.193036,-11.192991 c 1.148534,-1.091964 2.515296,-2.121441 4.082157,-1.975244 2.387319,0.33515 4.495612,3.257095 3.950508,5.311198 -0.69119,1.822439 -1.644053,2.653641 -2.962854,3.972398 -4.011772,4.001516 -7.13982,7.09593 -11.039385,10.995473 -1.465533,1.339156 -2.413323,1.701735 -3.774881,0.438948 -0.702312,-0.702312 -1.009566,-1.389987 -0.921786,-2.063024 0.09742,-0.785288 0.541967,-1.328433 1.053435,-1.843549 l 10.227315,-10.22736 c 0.467222,-0.468045 1.53129,-1.366429 1.975243,-0.965654 0.340601,0.790182 -0.536561,1.544393 -0.965631,1.975243 l -9.393377,9.393355 1.799637,1.843572 9.437244,-9.393333 c 1.625456,-1.676531 2.793276,-3.725227 0.965655,-5.618451 -2.021269,-1.734881 -4.150629,-0.576671 -5.662343,0.921786 L 37.906227,47.354138 c -1.053435,1.053435 -1.65335,2.194695 -1.799637,3.423758 -0.11541,1.723001 0.661425,3.106092 1.711857,4.169938 0.987365,0.981981 2.054059,1.525905 3.379889,1.536294 1.594022,-0.06382 3.161349,-1.113742 4.038199,-1.975243 z"
   inkscape:connector-curvature="0"
   id="path15389"
   style="stroke-width:0.02224549;fill:#cb4f24;fill-opacity:1" /></svg>